{
    "asset": {
        "version": "2.0"
    },
    "scene": 0,
    "scenes": [
        {
            "nodes": [
                0
            ]
        }
    ],
    "nodes": [
        {
            "children": [
                1
            ],
            "matrix": [
                0.001,
                0,
                0,
                0,
                0,
                0.001,
                0,
                0,
                0,
                0,
                0.001,
                0,
                0,
                0,
                0,
                1
            ],
            "name": "TRQQ",
            "extras": {
                "Dtk_PrototypeID": 1
            }
        },
        {
            "mesh": 0,
            "name": "Mesh"
        }
    ],
    "meshes": [
        {
            "primitives": [
                {
                    "attributes": {
                        "NORMAL": 2,
                        "POSITION": 1
                    },
                    "indices": 0,
                    "material": 0,
                    "mode": 4
                },
                {
                    "attributes": {
                        "NORMAL": 2,
                        "POSITION": 1
                    },
                    "indices": 3,
                    "material": 1,
                    "mode": 4
                },
                {
                    "attributes": {
                        "NORMAL": 2,
                        "POSITION": 1
                    },
                    "indices": 4,
                    "material": 2,
                    "mode": 4
                },
                {
                    "attributes": {
                        "NORMAL": 2,
                        "POSITION": 1
                    },
                    "indices": 5,
                    "material": 3,
                    "mode": 4
                },
                {
                    "attributes": {
                        "NORMAL": 2,
                        "POSITION": 1
                    },
                    "indices": 6,
                    "material": 4,
                    "mode": 4
                }
            ]
        }
    ],
    "accessors": [
        {
            "bufferView": 0,
            "byteOffset": 0,
            "componentType": 5123,
            "count": 1458,
            "max": [
                4318
            ],
            "min": [
                0
            ],
            "type": "SCALAR"
        },
        {
            "bufferView": 1,
            "byteOffset": 0,
            "componentType": 5126,
            "count": 4319,
            "max": [
                28.24526405,
                10.10000038,
                25.93529701
            ],
            "min": [
                -28.24526405,
                -12.25427246,
                -25.96825218
            ],
            "type": "VEC3"
        },
        {
            "bufferView": 1,
            "byteOffset": 51828,
            "componentType": 5126,
            "count": 4319,
            "max": [
                1,
                1,
                1
            ],
            "min": [
                -1,
                -1,
                -1
            ],
            "type": "VEC3"
        },
        {
            "bufferView": 0,
            "byteOffset": 2916,
            "componentType": 5123,
            "count": 13245,
            "max": [
                4021
            ],
            "min": [
                70
            ],
            "type": "SCALAR"
        },
        {
            "bufferView": 0,
            "byteOffset": 29406,
            "componentType": 5123,
            "count": 1116,
            "max": [
                487
            ],
            "min": [
                235
            ],
            "type": "SCALAR"
        },
        {
            "bufferView": 0,
            "byteOffset": 31638,
            "componentType": 5123,
            "count": 324,
            "max": [
                3440
            ],
            "min": [
                488
            ],
            "type": "SCALAR"
        },
        {
            "bufferView": 0,
            "byteOffset": 32286,
            "componentType": 5123,
            "count": 681,
            "max": [
                3671
            ],
            "min": [
                3441
            ],
            "type": "SCALAR"
        }
    ],
    "materials": [
        {
            "pbrMetallicRoughness": {
                "baseColorFactor": [
                    0.6392156863,
                    0.6666666667,
                    0.6784313725,
                    1
                ],
                "metallicFactor": 0,
                "roughnessFactor": 1
            },
            "doubleSided": true,
            "alphaMode": "OPAQUE",
            "extras": {
                "Dtk_ColorId": 1
            }
        },
        {
            "pbrMetallicRoughness": {
                "baseColorFactor": [
                    0.6470588235,
                    0.6196078431,
                    0.6,
                    1
                ],
                "metallicFactor": 0,
                "roughnessFactor": 1
            },
            "doubleSided": true,
            "alphaMode": "OPAQUE",
            "extras": {
                "Dtk_ColorId": 8
            }
        },
        {
            "pbrMetallicRoughness": {
                "baseColorFactor": [
                    0.1019607843,
                    0.1019607843,
                    0.1019607843,
                    1
                ],
                "metallicFactor": 0,
                "roughnessFactor": 1
            },
            "doubleSided": true,
            "alphaMode": "OPAQUE",
            "extras": {
                "Dtk_ColorId": 10
            }
        },
        {
            "pbrMetallicRoughness": {
                "baseColorFactor": [
                    0,
                    0.5019607843,
                    1,
                    1
                ],
                "metallicFactor": 0,
                "roughnessFactor": 1
            },
            "doubleSided": true,
            "alphaMode": "OPAQUE",
            "extras": {
                "Dtk_ColorId": 4
            }
        },
        {
            "pbrMetallicRoughness": {
                "baseColorFactor": [
                    0,
                    0,
                    0,
                    1
                ],
                "metallicFactor": 0,
                "roughnessFactor": 1
            },
            "doubleSided": true,
            "alphaMode": "OPAQUE",
            "extras": {
                "Dtk_ColorId": 9
            }
        }
    ],
    "bufferViews": [
        {
            "buffer": 0,
            "byteOffset": 0,
            "byteLength": 33648,
            "target": 34963
        },
        {
            "buffer": 0,
            "byteOffset": 33648,
            "byteLength": 103656,
            "byteStride": 12,
            "target": 34962
        }
    ],
    "buffers": [
        {
            "byteLength": 137304,
            "uri": "TRQQ.bin"
        }
    ]
}